<mxfile host="app.diagrams.net" agent="Mozilla/5.0 (Windows NT 10.0; Win64; x64) AppleWebKit/537.36 (KHTML, like Gecko) Chrome/133.0.0.0 Safari/537.36 Edg/133.0.0.0" version="26.0.16">
  <diagram name="Page-1" id="jQFn5HOyZnFR5WHQUwbv">
    <mxGraphModel dx="1426" dy="1574" grid="1" gridSize="10" guides="1" tooltips="1" connect="1" arrows="1" fold="1" page="1" pageScale="1" pageWidth="1169" pageHeight="827" math="0" shadow="0">
      <root>
        <mxCell id="0" />
        <mxCell id="1" parent="0" />
        <mxCell id="-QGJuMBhOjV9N6RnQMlm-3" style="edgeStyle=orthogonalEdgeStyle;rounded=0;orthogonalLoop=1;jettySize=auto;html=1;entryX=0;entryY=0.5;entryDx=0;entryDy=0;" parent="1" source="-QGJuMBhOjV9N6RnQMlm-1" edge="1">
          <mxGeometry relative="1" as="geometry">
            <mxPoint x="250" y="70" as="targetPoint" />
          </mxGeometry>
        </mxCell>
        <mxCell id="-QGJuMBhOjV9N6RnQMlm-1" value="start" style="ellipse;whiteSpace=wrap;html=1;fontStyle=1" parent="1" vertex="1">
          <mxGeometry x="40" y="30" width="120" height="80" as="geometry" />
        </mxCell>
        <mxCell id="KGEA-NOSsmliJ40rmCil-3" value="&amp;nbsp;INPUTS (all required)" style="swimlane;fontStyle=0;childLayout=stackLayout;horizontal=1;startSize=30;horizontalStack=0;resizeParent=1;resizeParentMax=0;resizeLast=0;collapsible=1;marginBottom=0;whiteSpace=wrap;html=1;" parent="1" vertex="1">
          <mxGeometry x="250" y="-20" width="170" height="240" as="geometry" />
        </mxCell>
        <mxCell id="KGEA-NOSsmliJ40rmCil-4" value="ativo&amp;nbsp;(required)" style="text;strokeColor=none;fillColor=none;align=left;verticalAlign=middle;spacingLeft=4;spacingRight=4;overflow=hidden;points=[[0,0.5],[1,0.5]];portConstraint=eastwest;rotatable=0;whiteSpace=wrap;html=1;" parent="KGEA-NOSsmliJ40rmCil-3" vertex="1">
          <mxGeometry y="30" width="170" height="30" as="geometry" />
        </mxCell>
        <mxCell id="KGEA-NOSsmliJ40rmCil-5" value="local origem&amp;nbsp;(required)" style="text;strokeColor=none;fillColor=none;align=left;verticalAlign=middle;spacingLeft=4;spacingRight=4;overflow=hidden;points=[[0,0.5],[1,0.5]];portConstraint=eastwest;rotatable=0;whiteSpace=wrap;html=1;" parent="KGEA-NOSsmliJ40rmCil-3" vertex="1">
          <mxGeometry y="60" width="170" height="30" as="geometry" />
        </mxCell>
        <mxCell id="KGEA-NOSsmliJ40rmCil-6" value="local destino&amp;nbsp;(required)" style="text;strokeColor=none;fillColor=none;align=left;verticalAlign=middle;spacingLeft=4;spacingRight=4;overflow=hidden;points=[[0,0.5],[1,0.5]];portConstraint=eastwest;rotatable=0;whiteSpace=wrap;html=1;" parent="KGEA-NOSsmliJ40rmCil-3" vertex="1">
          <mxGeometry y="90" width="170" height="30" as="geometry" />
        </mxCell>
        <mxCell id="KGEA-NOSsmliJ40rmCil-7" value="quantidade (required)" style="text;strokeColor=none;fillColor=none;align=left;verticalAlign=middle;spacingLeft=4;spacingRight=4;overflow=hidden;points=[[0,0.5],[1,0.5]];portConstraint=eastwest;rotatable=0;whiteSpace=wrap;html=1;" parent="KGEA-NOSsmliJ40rmCil-3" vertex="1">
          <mxGeometry y="120" width="170" height="30" as="geometry" />
        </mxCell>
        <mxCell id="egk9_ewCe-SisufG7VyX-1" value="observacao" style="text;strokeColor=none;fillColor=none;align=left;verticalAlign=middle;spacingLeft=4;spacingRight=4;overflow=hidden;points=[[0,0.5],[1,0.5]];portConstraint=eastwest;rotatable=0;whiteSpace=wrap;html=1;" vertex="1" parent="KGEA-NOSsmliJ40rmCil-3">
          <mxGeometry y="150" width="170" height="30" as="geometry" />
        </mxCell>
        <mxCell id="KGEA-NOSsmliJ40rmCil-8" value="user (session)" style="text;strokeColor=none;fillColor=none;align=left;verticalAlign=middle;spacingLeft=4;spacingRight=4;overflow=hidden;points=[[0,0.5],[1,0.5]];portConstraint=eastwest;rotatable=0;whiteSpace=wrap;html=1;" parent="KGEA-NOSsmliJ40rmCil-3" vertex="1">
          <mxGeometry y="180" width="170" height="30" as="geometry" />
        </mxCell>
        <mxCell id="KGEA-NOSsmliJ40rmCil-9" value="time_stamps (auto)" style="text;strokeColor=none;fillColor=none;align=left;verticalAlign=middle;spacingLeft=4;spacingRight=4;overflow=hidden;points=[[0,0.5],[1,0.5]];portConstraint=eastwest;rotatable=0;whiteSpace=wrap;html=1;" parent="KGEA-NOSsmliJ40rmCil-3" vertex="1">
          <mxGeometry y="210" width="170" height="30" as="geometry" />
        </mxCell>
        <mxCell id="KGEA-NOSsmliJ40rmCil-17" value="" style="edgeStyle=orthogonalEdgeStyle;rounded=0;orthogonalLoop=1;jettySize=auto;html=1;" parent="1" source="KGEA-NOSsmliJ40rmCil-11" edge="1">
          <mxGeometry relative="1" as="geometry">
            <mxPoint x="690" y="85.00000000000023" as="targetPoint" />
          </mxGeometry>
        </mxCell>
        <mxCell id="KGEA-NOSsmliJ40rmCil-20" value="&lt;font style=&quot;font-size: 16px;&quot; color=&quot;#ff6666&quot;&gt;NO&lt;/font&gt;" style="edgeLabel;html=1;align=center;verticalAlign=middle;resizable=0;points=[];fontStyle=1" parent="KGEA-NOSsmliJ40rmCil-17" vertex="1" connectable="0">
          <mxGeometry x="-0.1108" y="1" relative="1" as="geometry">
            <mxPoint as="offset" />
          </mxGeometry>
        </mxCell>
        <mxCell id="egk9_ewCe-SisufG7VyX-2" value="" style="edgeStyle=orthogonalEdgeStyle;rounded=0;orthogonalLoop=1;jettySize=auto;html=1;" edge="1" parent="1" source="KGEA-NOSsmliJ40rmCil-11" target="KGEA-NOSsmliJ40rmCil-21">
          <mxGeometry relative="1" as="geometry" />
        </mxCell>
        <mxCell id="KGEA-NOSsmliJ40rmCil-11" value="VALIDATE" style="rhombus;whiteSpace=wrap;html=1;fontStyle=1" parent="1" vertex="1">
          <mxGeometry x="490" y="30" width="120" height="110" as="geometry" />
        </mxCell>
        <mxCell id="KGEA-NOSsmliJ40rmCil-12" style="edgeStyle=orthogonalEdgeStyle;rounded=0;orthogonalLoop=1;jettySize=auto;html=1;" parent="1" source="KGEA-NOSsmliJ40rmCil-6" target="KGEA-NOSsmliJ40rmCil-11" edge="1">
          <mxGeometry relative="1" as="geometry" />
        </mxCell>
        <mxCell id="KGEA-NOSsmliJ40rmCil-19" value="ERROR HANDLING" style="rhombus;whiteSpace=wrap;html=1;fontStyle=1" parent="1" vertex="1">
          <mxGeometry x="690" y="30" width="140" height="110" as="geometry" />
        </mxCell>
        <mxCell id="egk9_ewCe-SisufG7VyX-4" value="" style="edgeStyle=orthogonalEdgeStyle;rounded=0;orthogonalLoop=1;jettySize=auto;html=1;" edge="1" parent="1" source="KGEA-NOSsmliJ40rmCil-21" target="egk9_ewCe-SisufG7VyX-3">
          <mxGeometry relative="1" as="geometry" />
        </mxCell>
        <mxCell id="KGEA-NOSsmliJ40rmCil-21" value="yes" style="rounded=1;whiteSpace=wrap;html=1;fillColor=#d5e8d4;strokeColor=#82b366;" parent="1" vertex="1">
          <mxGeometry x="510" y="220" width="80" height="20" as="geometry" />
        </mxCell>
        <mxCell id="egk9_ewCe-SisufG7VyX-3" value="- insert database&lt;div&gt;- desconta quantidade no local origem&lt;/div&gt;&lt;div&gt;- add quant local destino&lt;/div&gt;&lt;div&gt;- atualiza quant disponivel e em uso&lt;/div&gt;" style="whiteSpace=wrap;html=1;rounded=1;align=left;" vertex="1" parent="1">
          <mxGeometry x="450" y="300" width="200" height="130" as="geometry" />
        </mxCell>
      </root>
    </mxGraphModel>
  </diagram>
</mxfile>
